<svg xmlns="http://www.w3.org/2000/svg" viewBox="0 0 1240 640" width="1240" height="640" xml:space="preserve" role="img" aria-label="System view of the method: per-group encoders map group-specific inputs into a shared latent space with learnt class anchors, a single head predicts for all groups, alignment and separation losses shape the latent space, and group weights driven by each group's excess loss over an offline reference feed the weighted training objective." font-family="Helvetica, Arial, sans-serif" font-size="13" fill="#141413"><defs><marker id="ak" viewBox="0 0 10 10" refX="9" refY="5" markerWidth="7" markerHeight="7" orient="auto-start-reverse"><path d="M0,0 L10,5 L0,10 z" fill="#141413"/></marker><marker id="ag" viewBox="0 0 10 10" refX="9" refY="5" markerWidth="7" markerHeight="7" orient="auto-start-reverse"><path d="M0,0 L10,5 L0,10 z" fill="#6b6b6b"/></marker><marker id="ar" viewBox="0 0 10 10" refX="9" refY="5" markerWidth="7" markerHeight="7" orient="auto-start-reverse"><path d="M0,0 L10,5 L0,10 z" fill="#b03a3a"/></marker><pattern id="hatch" width="6" height="6" patternUnits="userSpaceOnUse" patternTransform="rotate(45)"><rect width="6" height="6" fill="#ffffff"/><line x1="0" y1="0" x2="0" y2="6" stroke="#b03a3a" stroke-width="1.6"/></pattern></defs><rect width="1240" height="640" fill="#ffffff"/><rect x="14" y="14" width="1212" height="372" rx="8" fill="#f7f6f2" stroke="#c9c8c3" stroke-width="1.1"/><text x="30" y="38" font-size="11.5" text-anchor="start" font-weight="700" fill="#6b6b6b">MODEL  (min player)</text><rect x="14" y="398" width="596" height="228" rx="8" fill="#f7f6f2" stroke="#c9c8c3" stroke-width="1.1"/><text x="30" y="422" font-size="11.5" text-anchor="start" font-weight="700" fill="#6b6b6b">LATENT-SPACE LOSSES</text><rect x="622" y="398" width="604" height="228" rx="8" fill="#f7f6f2" stroke="#c9c8c3" stroke-width="1.1"/><text x="638" y="422" font-size="11.5" text-anchor="start" font-weight="700" fill="#6b6b6b">GROUP WEIGHTS  (max player)</text><text x="30" y="66" font-size="13.5" text-anchor="start" font-weight="700" fill="#141413">Group inputs</text><text x="30" y="88" font-size="12" fill="#6b6b6b">group 1:  <tspan font-style="italic">x</tspan> ∈ <tspan font-style="italic">X</tspan><tspan dy="3.6" font-size="8.6">1</tspan><tspan dy="-3.6">​</tspan></text><rect x="30" y="96" width="16" height="22" rx="2" fill="#d9e8fa" stroke="#2a78d6" stroke-width="1.1"/><rect x="49" y="96" width="16" height="22" rx="2" fill="#d9e8fa" stroke="#2a78d6" stroke-width="1.1"/><rect x="68" y="96" width="16" height="22" rx="2" fill="#d9e8fa" stroke="#2a78d6" stroke-width="1.1"/><rect x="87" y="96" width="16" height="22" rx="2" fill="#ffffff" stroke="#c9c8c3" stroke-width="1.1" stroke-dasharray="3 2"/><rect x="106" y="96" width="16" height="22" rx="2" fill="#ffffff" stroke="#c9c8c3" stroke-width="1.1" stroke-dasharray="3 2"/><rect x="125" y="96" width="16" height="22" rx="2" fill="#ffffff" stroke="#c9c8c3" stroke-width="1.1" stroke-dasharray="3 2"/><rect x="144" y="96" width="16" height="22" rx="2" fill="#ffffff" stroke="#c9c8c3" stroke-width="1.1" stroke-dasharray="3 2"/><rect x="163" y="96" width="16" height="22" rx="2" fill="#ffffff" stroke="#c9c8c3" stroke-width="1.1" stroke-dasharray="3 2"/><text x="30" y="136" font-size="11" fill="#6b6b6b"><tspan font-style="italic">S</tspan><tspan dy="3.3" font-size="7.9">1</tspan><tspan dy="-3.3">​</tspan>: 3 measurements</text><text x="30" y="178" font-size="12" fill="#6b6b6b">group 2:  <tspan font-style="italic">x</tspan> ∈ <tspan font-style="italic">X</tspan><tspan dy="3.6" font-size="8.6">2</tspan><tspan dy="-3.6">​</tspan></text><rect x="30" y="186" width="16" height="22" rx="2" fill="#fbe1d5" stroke="#eb6834" stroke-width="1.1"/><rect x="49" y="186" width="16" height="22" rx="2" fill="#fbe1d5" stroke="#eb6834" stroke-width="1.1"/><rect x="68" y="186" width="16" height="22" rx="2" fill="#fbe1d5" stroke="#eb6834" stroke-width="1.1"/><rect x="87" y="186" width="16" height="22" rx="2" fill="#fbe1d5" stroke="#eb6834" stroke-width="1.1"/><rect x="106" y="186" width="16" height="22" rx="2" fill="#fbe1d5" stroke="#eb6834" stroke-width="1.1"/><rect x="125" y="186" width="16" height="22" rx="2" fill="#ffffff" stroke="#c9c8c3" stroke-width="1.1" stroke-dasharray="3 2"/><rect x="144" y="186" width="16" height="22" rx="2" fill="#ffffff" stroke="#c9c8c3" stroke-width="1.1" stroke-dasharray="3 2"/><rect x="163" y="186" width="16" height="22" rx="2" fill="#ffffff" stroke="#c9c8c3" stroke-width="1.1" stroke-dasharray="3 2"/><text x="30" y="226" font-size="11" fill="#6b6b6b"><tspan font-style="italic">S</tspan><tspan dy="3.3" font-size="7.9">2</tspan><tspan dy="-3.3">​</tspan>: 5 measurements</text><text x="30" y="288" font-size="12" fill="#6b6b6b">group G:  <tspan font-style="italic">x</tspan> ∈ <tspan font-style="italic">X</tspan><tspan dy="3.6" font-size="8.6">G</tspan><tspan dy="-3.6">​</tspan></text><rect x="30" y="296" width="16" height="22" rx="2" fill="#d3f0e5" stroke="#1baf7a" stroke-width="1.1"/><rect x="49" y="296" width="16" height="22" rx="2" fill="#d3f0e5" stroke="#1baf7a" stroke-width="1.1"/><rect x="68" y="296" width="16" height="22" rx="2" fill="#d3f0e5" stroke="#1baf7a" stroke-width="1.1"/><rect x="87" y="296" width="16" height="22" rx="2" fill="#d3f0e5" stroke="#1baf7a" stroke-width="1.1"/><rect x="106" y="296" width="16" height="22" rx="2" fill="#d3f0e5" stroke="#1baf7a" stroke-width="1.1"/><rect x="125" y="296" width="16" height="22" rx="2" fill="#d3f0e5" stroke="#1baf7a" stroke-width="1.1"/><rect x="144" y="296" width="16" height="22" rx="2" fill="#d3f0e5" stroke="#1baf7a" stroke-width="1.1"/><rect x="163" y="296" width="16" height="22" rx="2" fill="#d3f0e5" stroke="#1baf7a" stroke-width="1.1"/><text x="30" y="336" font-size="11" fill="#6b6b6b"><tspan font-style="italic">S</tspan><tspan dy="3.3" font-size="7.9">G</tspan><tspan dy="-3.3">​</tspan>: … measurements</text><text x="104" y="262" font-size="16" text-anchor="middle" font-weight="400" fill="#6b6b6b">⋮</text><text x="250" y="66" font-size="13.5" text-anchor="start" font-weight="700" fill="#141413">Per-group encoders</text><line x1="186" y1="107" x2="246" y2="107" stroke="#6b6b6b" stroke-width="1.2" marker-end="url(#ag)"/><polygon points="250,91.0 340,93 340,121 250,123.0" fill="#d9e8fa" stroke="#2a78d6" stroke-width="1.1"/><text x="295" y="112" font-size="14" text-anchor="middle"><tspan font-style="italic">φ</tspan><tspan dy="4.2" font-size="10.1">1</tspan><tspan dy="-4.2">​</tspan></text><path d="M342,107 C392,107 392,176 436,176" fill="none" stroke="#6b6b6b" stroke-width="1.2" marker-end="url(#ag)"/><line x1="186" y1="197" x2="246" y2="197" stroke="#6b6b6b" stroke-width="1.2" marker-end="url(#ag)"/><polygon points="250,175.0 340,183 340,211 250,219.0" fill="#fbe1d5" stroke="#eb6834" stroke-width="1.1"/><text x="295" y="202" font-size="14" text-anchor="middle"><tspan font-style="italic">φ</tspan><tspan dy="4.2" font-size="10.1">2</tspan><tspan dy="-4.2">​</tspan></text><path d="M342,197 C392,197 392,210 436,210" fill="none" stroke="#6b6b6b" stroke-width="1.2" marker-end="url(#ag)"/><line x1="186" y1="307" x2="246" y2="307" stroke="#6b6b6b" stroke-width="1.2" marker-end="url(#ag)"/><polygon points="250,276.0 340,293 340,321 250,338.0" fill="#d3f0e5" stroke="#1baf7a" stroke-width="1.1"/><text x="295" y="312" font-size="14" text-anchor="middle"><tspan font-style="italic">φ</tspan><tspan dy="4.2" font-size="10.1">G</tspan><tspan dy="-4.2">​</tspan></text><path d="M342,307 C392,307 392,244 436,244" fill="none" stroke="#6b6b6b" stroke-width="1.2" marker-end="url(#ag)"/><text x="295" y="364" font-size="11" text-anchor="middle" font-weight="400" fill="#6b6b6b">no shared parameters</text><text x="440" y="66" font-size="13.5" text-anchor="start" font-weight="700" fill="#141413">Shared latent space</text><text x="700" y="66" font-size="12.5" text-anchor="end" fill="#6b6b6b"><tspan font-style="italic">Z</tspan> = ℝ<tspan dy="-5" font-size="9">d</tspan></text><rect x="440" y="80" width="262" height="262" rx="6" fill="#ffffff" stroke="#141413" stroke-width="1.1"/><ellipse cx="516" cy="160" rx="58" ry="46" fill="#9a9a94" fill-opacity="0.12" stroke="#9a9a94" stroke-width="1.2" stroke-dasharray="5 3"/><circle cx="510.6" cy="168.2" r="3.1" fill="#2a78d6" stroke="none" stroke-width="1" fill-opacity="0.85"/><circle cx="511.3" cy="155.0" r="3.1" fill="#2a78d6" stroke="none" stroke-width="1" fill-opacity="0.85"/><circle cx="496.5" cy="156.6" r="3.1" fill="#2a78d6" stroke="none" stroke-width="1" fill-opacity="0.85"/><circle cx="539.4" cy="166.8" r="3.1" fill="#2a78d6" stroke="none" stroke-width="1" fill-opacity="0.85"/><circle cx="537.8" cy="164.0" r="3.1" fill="#2a78d6" stroke="none" stroke-width="1" fill-opacity="0.85"/><circle cx="524.3" cy="163.0" r="3.1" fill="#2a78d6" stroke="none" stroke-width="1" fill-opacity="0.85"/><circle cx="481.0" cy="173.7" r="3.1" fill="#2a78d6" stroke="none" stroke-width="1" fill-opacity="0.85"/><circle cx="526.6" cy="168.0" r="3.1" fill="#2a78d6" stroke="none" stroke-width="1" fill-opacity="0.85"/><circle cx="480.5" cy="132.1" r="3.1" fill="#2a78d6" stroke="none" stroke-width="1" fill-opacity="0.85"/><circle cx="497.3" cy="152.5" r="3.1" fill="#eb6834" stroke="none" stroke-width="1" fill-opacity="0.85"/><circle cx="522.4" cy="159.3" r="3.1" fill="#eb6834" stroke="none" stroke-width="1" fill-opacity="0.85"/><circle cx="526.9" cy="149.7" r="3.1" fill="#eb6834" stroke="none" stroke-width="1" fill-opacity="0.85"/><circle cx="522.5" cy="166.3" r="3.1" fill="#eb6834" stroke="none" stroke-width="1" fill-opacity="0.85"/><circle cx="502.1" cy="187.5" r="3.1" fill="#eb6834" stroke="none" stroke-width="1" fill-opacity="0.85"/><circle cx="527.7" cy="179.2" r="3.1" fill="#eb6834" stroke="none" stroke-width="1" fill-opacity="0.85"/><circle cx="503.0" cy="148.2" r="3.1" fill="#eb6834" stroke="none" stroke-width="1" fill-opacity="0.85"/><circle cx="508.8" cy="158.3" r="3.1" fill="#eb6834" stroke="none" stroke-width="1" fill-opacity="0.85"/><circle cx="529.3" cy="164.0" r="3.1" fill="#eb6834" stroke="none" stroke-width="1" fill-opacity="0.85"/><circle cx="506.6" cy="144.7" r="3.1" fill="#1baf7a" stroke="none" stroke-width="1" fill-opacity="0.85"/><circle cx="505.1" cy="179.5" r="3.1" fill="#1baf7a" stroke="none" stroke-width="1" fill-opacity="0.85"/><circle cx="499.0" cy="163.9" r="3.1" fill="#1baf7a" stroke="none" stroke-width="1" fill-opacity="0.85"/><circle cx="525.0" cy="136.2" r="3.1" fill="#1baf7a" stroke="none" stroke-width="1" fill-opacity="0.85"/><circle cx="517.0" cy="180.9" r="3.1" fill="#1baf7a" stroke="none" stroke-width="1" fill-opacity="0.85"/><circle cx="473.7" cy="154.9" r="3.1" fill="#1baf7a" stroke="none" stroke-width="1" fill-opacity="0.85"/><circle cx="513.8" cy="146.9" r="3.1" fill="#1baf7a" stroke="none" stroke-width="1" fill-opacity="0.85"/><circle cx="526.4" cy="159.0" r="3.1" fill="#1baf7a" stroke="none" stroke-width="1" fill-opacity="0.85"/><circle cx="485.2" cy="173.2" r="3.1" fill="#1baf7a" stroke="none" stroke-width="1" fill-opacity="0.85"/><polygon points="516.0,149.0 518.7,156.3 526.5,156.6 520.4,161.4 522.5,168.9 516.0,164.6 509.5,168.9 511.6,161.4 505.5,156.6 513.3,156.3" fill="#9a9a94" stroke="#141413" stroke-width="1.2"/><ellipse cx="626" cy="262" rx="58" ry="46" fill="#e87ba4" fill-opacity="0.12" stroke="#e87ba4" stroke-width="1.2" stroke-dasharray="5 3"/><circle cx="640.1" cy="277.1" r="3.1" fill="#2a78d6" stroke="none" stroke-width="1" fill-opacity="0.85"/><circle cx="656.3" cy="267.8" r="3.1" fill="#2a78d6" stroke="none" stroke-width="1" fill-opacity="0.85"/><circle cx="628.5" cy="241.2" r="3.1" fill="#2a78d6" stroke="none" stroke-width="1" fill-opacity="0.85"/><circle cx="638.9" cy="252.2" r="3.1" fill="#2a78d6" stroke="none" stroke-width="1" fill-opacity="0.85"/><circle cx="616.5" cy="241.8" r="3.1" fill="#2a78d6" stroke="none" stroke-width="1" fill-opacity="0.85"/><circle cx="605.7" cy="253.5" r="3.1" fill="#2a78d6" stroke="none" stroke-width="1" fill-opacity="0.85"/><circle cx="653.1" cy="229.5" r="3.1" fill="#2a78d6" stroke="none" stroke-width="1" fill-opacity="0.85"/><circle cx="595.4" cy="265.8" r="3.1" fill="#2a78d6" stroke="none" stroke-width="1" fill-opacity="0.85"/><circle cx="656.3" cy="271.3" r="3.1" fill="#2a78d6" stroke="none" stroke-width="1" fill-opacity="0.85"/><circle cx="586.1" cy="221.7" r="3.1" fill="#eb6834" stroke="none" stroke-width="1" fill-opacity="0.85"/><circle cx="633.5" cy="250.2" r="3.1" fill="#eb6834" stroke="none" stroke-width="1" fill-opacity="0.85"/><circle cx="602.5" cy="277.6" r="3.1" fill="#eb6834" stroke="none" stroke-width="1" fill-opacity="0.85"/><circle cx="649.1" cy="264.5" r="3.1" fill="#eb6834" stroke="none" stroke-width="1" fill-opacity="0.85"/><circle cx="631.2" cy="268.9" r="3.1" fill="#eb6834" stroke="none" stroke-width="1" fill-opacity="0.85"/><circle cx="659.5" cy="271.9" r="3.1" fill="#eb6834" stroke="none" stroke-width="1" fill-opacity="0.85"/><circle cx="636.9" cy="270.8" r="3.1" fill="#eb6834" stroke="none" stroke-width="1" fill-opacity="0.85"/><circle cx="593.1" cy="282.5" r="3.1" fill="#eb6834" stroke="none" stroke-width="1" fill-opacity="0.85"/><circle cx="646.1" cy="270.5" r="3.1" fill="#eb6834" stroke="none" stroke-width="1" fill-opacity="0.85"/><circle cx="584.5" cy="251.9" r="3.1" fill="#1baf7a" stroke="none" stroke-width="1" fill-opacity="0.85"/><circle cx="643.7" cy="233.0" r="3.1" fill="#1baf7a" stroke="none" stroke-width="1" fill-opacity="0.85"/><circle cx="622.1" cy="278.3" r="3.1" fill="#1baf7a" stroke="none" stroke-width="1" fill-opacity="0.85"/><circle cx="598.5" cy="287.8" r="3.1" fill="#1baf7a" stroke="none" stroke-width="1" fill-opacity="0.85"/><circle cx="637.6" cy="259.6" r="3.1" fill="#1baf7a" stroke="none" stroke-width="1" fill-opacity="0.85"/><circle cx="632.8" cy="272.4" r="3.1" fill="#1baf7a" stroke="none" stroke-width="1" fill-opacity="0.85"/><circle cx="628.5" cy="280.3" r="3.1" fill="#1baf7a" stroke="none" stroke-width="1" fill-opacity="0.85"/><circle cx="612.1" cy="255.4" r="3.1" fill="#1baf7a" stroke="none" stroke-width="1" fill-opacity="0.85"/><circle cx="647.9" cy="262.4" r="3.1" fill="#1baf7a" stroke="none" stroke-width="1" fill-opacity="0.85"/><polygon points="626.0,251.0 628.7,258.3 636.5,258.6 630.4,263.4 632.5,270.9 626.0,266.6 619.5,270.9 621.6,263.4 615.5,258.6 623.3,258.3" fill="#e87ba4" stroke="#141413" stroke-width="1.2"/><text x="452" y="104" font-size="12"><tspan font-style="italic">μ</tspan><tspan dy="3.6" font-size="8.6">1</tspan><tspan dy="-3.6">​</tspan> = N(<tspan font-style="italic">m</tspan><tspan dy="3.6" font-size="8.6">1</tspan><tspan dy="-3.6">​</tspan>, <tspan font-style="italic">Σ</tspan><tspan dy="3.6" font-size="8.6">1</tspan><tspan dy="-3.6">​</tspan>)</text><text x="690" y="330" font-size="12" text-anchor="end"><tspan font-style="italic">μ</tspan><tspan dy="3.6" font-size="8.6">2</tspan><tspan dy="-3.6">​</tspan> = N(<tspan font-style="italic">m</tspan><tspan dy="3.6" font-size="8.6">2</tspan><tspan dy="-3.6">​</tspan>, <tspan font-style="italic">Σ</tspan><tspan dy="3.6" font-size="8.6">2</tspan><tspan dy="-3.6">​</tspan>)</text><path d="M558,196 L586,226" fill="none" stroke="#b03a3a" stroke-width="1.4" marker-end="url(#ar)"/><path d="M586,226 L558,196" fill="none" stroke="#b03a3a" stroke-width="1.4" marker-end="url(#ar)"/><text x="690" y="104" font-size="10.5" text-anchor="end" font-weight="400" fill="#6b6b6b">learnt class anchors</text><text x="752" y="66" font-size="13.5" text-anchor="start" font-weight="700" fill="#141413">Shared head</text><line x1="704" y1="210" x2="750" y2="210" stroke="#141413" stroke-width="1.2" marker-end="url(#ak)"/><rect x="754" y="176" width="84" height="68" rx="6" fill="#ecebe6" stroke="#141413" stroke-width="1.1"/><text x="796" y="207" font-size="16" text-anchor="middle" font-style="italic">ψ</text><text x="796" y="228" font-size="10.5" text-anchor="middle" font-weight="400" fill="#6b6b6b">one for all</text><text x="796" y="268" font-size="11.5" text-anchor="middle" fill="#6b6b6b"><tspan font-style="italic">f</tspan><tspan dy="3.4" font-size="8.3">g</tspan><tspan dy="-3.4">​</tspan> = ψ∘<tspan font-style="italic">φ</tspan><tspan dy="3.4" font-size="8.3">g</tspan><tspan dy="-3.4">​</tspan></text><line x1="840" y1="210" x2="884" y2="210" stroke="#141413" stroke-width="1.2" marker-end="url(#ak)"/><text x="902" y="215" font-size="15" text-anchor="middle" font-style="italic">ŷ</text><text x="960" y="66" font-size="13.5" text-anchor="start" font-weight="700" fill="#141413">Per-group losses</text><path d="M916,210 C936,210 936,146 956,146" fill="none" stroke="#6b6b6b" stroke-width="1.2" marker-end="url(#ag)"/><rect x="960" y="130" width="120" height="32" rx="5" fill="#d9e8fa" stroke="#2a78d6" stroke-width="1.1"/><text x="1020" y="151" font-size="13" text-anchor="middle"><tspan font-style="italic">L</tspan><tspan dy="3.9" font-size="9.4">1</tspan><tspan dy="-3.9">​</tspan>(θ)</text><path d="M916,210 C936,210 936,212 956,212" fill="none" stroke="#6b6b6b" stroke-width="1.2" marker-end="url(#ag)"/><rect x="960" y="196" width="120" height="32" rx="5" fill="#fbe1d5" stroke="#eb6834" stroke-width="1.1"/><text x="1020" y="217" font-size="13" text-anchor="middle"><tspan font-style="italic">L</tspan><tspan dy="3.9" font-size="9.4">2</tspan><tspan dy="-3.9">​</tspan>(θ)</text><path d="M916,210 C936,210 936,278 956,278" fill="none" stroke="#6b6b6b" stroke-width="1.2" marker-end="url(#ag)"/><rect x="960" y="262" width="120" height="32" rx="5" fill="#d3f0e5" stroke="#1baf7a" stroke-width="1.1"/><text x="1020" y="283" font-size="13" text-anchor="middle"><tspan font-style="italic">L</tspan><tspan dy="3.9" font-size="9.4">G</tspan><tspan dy="-3.9">​</tspan>(θ)</text><text x="1020" y="320" font-size="11" text-anchor="middle" font-weight="400" fill="#6b6b6b">cross-entropy, per group</text><rect x="34" y="440" width="270" height="86" rx="6" fill="#ffffff" stroke="#141413" stroke-width="1.1"/><text x="48" y="462" font-size="12.5" text-anchor="start" font-weight="700" fill="#141413">Alignment</text><text x="48" y="488" font-size="13"><tspan font-style="italic">L</tspan><tspan dy="3.9" font-size="9.4">align</tspan><tspan dy="-3.9">​</tspan> = Σ<tspan dy="4" font-size="9">g,c</tspan><tspan dy="-4"> </tspan><tspan font-style="italic">W</tspan><tspan dy="3.9" font-size="9.4">2</tspan><tspan dy="-3.9">​</tspan><tspan dy="-5" font-size="9">2</tspan><tspan dy="5">(</tspan><tspan font-style="italic">ν</tspan><tspan dy="3.9" font-size="9.4">g,c</tspan><tspan dy="-3.9">​</tspan>, <tspan font-style="italic">μ</tspan><tspan dy="3.9" font-size="9.4">c</tspan><tspan dy="-3.9">​</tspan>)</text><text x="48" y="512" font-size="10.5" text-anchor="start" font-weight="400" fill="#6b6b6b">each group's class cloud → its anchor</text><rect x="320" y="440" width="270" height="86" rx="6" fill="#ffffff" stroke="#141413" stroke-width="1.1"/><text x="334" y="462" font-size="12.5" text-anchor="start" font-weight="700" fill="#141413">Separation</text><text x="334" y="488" font-size="13"><tspan font-style="italic">L</tspan><tspan dy="3.9" font-size="9.4">sep</tspan><tspan dy="-3.9">​</tspan>: keeps <tspan font-style="italic">μ</tspan><tspan dy="3.9" font-size="9.4">c</tspan><tspan dy="-3.9">​</tspan> and <tspan font-style="italic">μ</tspan><tspan dy="3.9" font-size="9.4">c′</tspan><tspan dy="-3.9">​</tspan> apart</text><text x="334" y="512" font-size="10.5" text-anchor="start" font-weight="400" fill="#6b6b6b">anchors of different classes</text><path d="M500,342 C500,392 170,392 170,438" fill="none" stroke="#6b6b6b" stroke-width="1.2" marker-end="url(#ag)" stroke-dasharray="4 3"/><path d="M600,342 C600,400 455,400 455,438" fill="none" stroke="#6b6b6b" stroke-width="1.2" marker-end="url(#ag)" stroke-dasharray="4 3"/><text x="60" y="560" font-size="10.5" text-anchor="start" font-weight="400" fill="#6b6b6b">Closed form for diagonal Gaussians:</text><text x="60" y="580" font-size="12"><tspan font-style="italic">W</tspan><tspan dy="3.6" font-size="8.6">2</tspan><tspan dy="-3.6">​</tspan><tspan dy="-5" font-size="8.5">2</tspan><tspan dy="5"> = ‖</tspan><tspan font-style="italic">m</tspan><tspan dy="3.6" font-size="8.6">1</tspan><tspan dy="-3.6">​</tspan> − <tspan font-style="italic">m</tspan><tspan dy="3.6" font-size="8.6">2</tspan><tspan dy="-3.6">​</tspan>‖² + ‖<tspan font-style="italic">σ</tspan><tspan dy="3.6" font-size="8.6">1</tspan><tspan dy="-3.6">​</tspan> − <tspan font-style="italic">σ</tspan><tspan dy="3.6" font-size="8.6">2</tspan><tspan dy="-3.6">​</tspan>‖²</text><rect x="642" y="440" width="176" height="86" rx="6" fill="#ffffff" stroke="#141413" stroke-width="1.1" stroke-dasharray="5 3"/><text x="656" y="462" font-size="12.5" text-anchor="start" font-weight="700" fill="#141413">Reference (offline)</text><text x="656" y="488" font-size="13"><tspan font-style="italic">R̃</tspan><tspan dy="3.9" font-size="9.4">g</tspan><tspan dy="-3.9">​</tspan>: best loss group</text><text x="656" y="506" font-size="13"><tspan font-style="italic">g</tspan> can reach alone</text><line x1="820" y1="483" x2="850" y2="483" stroke="#141413" stroke-width="1.2" marker-end="url(#ak)"/><rect x="854" y="440" width="150" height="86" rx="6" fill="#ffffff" stroke="#b03a3a" stroke-width="1.1"/><text x="868" y="462" font-size="12.5" text-anchor="start" font-weight="700" fill="#b03a3a">Excess</text><text x="868" y="492" font-size="13.5"><tspan font-style="italic">Δ</tspan><tspan dy="4.0" font-size="9.7">g</tspan><tspan dy="-4.0">​</tspan> = <tspan font-style="italic">L</tspan><tspan dy="4.0" font-size="9.7">g</tspan><tspan dy="-4.0">​</tspan> − <tspan font-style="italic">R̃</tspan><tspan dy="4.0" font-size="9.7">g</tspan><tspan dy="-4.0">​</tspan></text><text x="868" y="514" font-size="10.5" text-anchor="start" font-weight="400" fill="#6b6b6b">signed, per group</text><line x1="1006" y1="483" x2="1036" y2="483" stroke="#b03a3a" stroke-width="1.2" marker-end="url(#ar)"/><rect x="1040" y="440" width="170" height="86" rx="6" fill="#ffffff" stroke="#141413" stroke-width="1.1"/><text x="1054" y="462" font-size="12.5" text-anchor="start" font-weight="700" fill="#141413">Weight update</text><text x="1054" y="492" font-size="13.5"><tspan font-style="italic">λ</tspan><tspan dy="4.0" font-size="9.7">g</tspan><tspan dy="-4.0">​</tspan> ∝ <tspan font-style="italic">λ</tspan><tspan dy="4.0" font-size="9.7">g</tspan><tspan dy="-4.0">​</tspan> exp(γ <tspan font-style="italic">Δ</tspan><tspan dy="4.0" font-size="9.7">g</tspan><tspan dy="-4.0">​</tspan>)</text><text x="1054" y="514" font-size="10.5" text-anchor="start" font-weight="400" fill="#6b6b6b">on the simplex</text><path d="M1086,130 h10 v164 h-10" fill="none" stroke="#6b6b6b" stroke-width="1.2"/><path d="M1096,212 H1140 V392 H929 V438" fill="none" stroke="#6b6b6b" stroke-width="1.2" marker-end="url(#ag)" stroke-dasharray="4 3"/><rect x="642" y="548" width="568" height="58" rx="6" fill="#ecebe6" stroke="#141413" stroke-width="1.1"/><text x="656" y="570" font-size="12.5" text-anchor="start" font-weight="700" fill="#141413">Training objective</text><text x="656" y="594" font-size="13.5">min<tspan dy="4" font-size="9">θ</tspan><tspan dy="-4">  Σ</tspan><tspan dy="4" font-size="9">g</tspan><tspan dy="-4"> </tspan><tspan font-style="italic">λ</tspan><tspan dy="4.0" font-size="9.7">g</tspan><tspan dy="-4.0">​</tspan> <tspan font-style="italic">L</tspan><tspan dy="4.0" font-size="9.7">g</tspan><tspan dy="-4.0">​</tspan>(θ)  +  <tspan font-style="italic">λ</tspan><tspan dy="4.0" font-size="9.7">fit</tspan><tspan dy="-4.0">​</tspan> <tspan font-style="italic">L</tspan><tspan dy="4.0" font-size="9.7">align</tspan><tspan dy="-4.0">​</tspan>  +  <tspan font-style="italic">λ</tspan><tspan dy="4.0" font-size="9.7">sep</tspan><tspan dy="-4.0">​</tspan> <tspan font-style="italic">L</tspan><tspan dy="4.0" font-size="9.7">sep</tspan><tspan dy="-4.0">​</tspan></text><line x1="1125" y1="528" x2="1125" y2="546" stroke="#141413" stroke-width="1.2" marker-end="url(#ak)"/><path d="M170,526 V538 H604" fill="none" stroke="#6b6b6b" stroke-width="1.2"/><path d="M455,526 V538" fill="none" stroke="#6b6b6b" stroke-width="1.2"/><path d="M604,538 V577 H640" fill="none" stroke="#6b6b6b" stroke-width="1.2" marker-end="url(#ag)"/><path d="M1210,577 H1219 V388" fill="none" stroke="#141413" stroke-width="1.4" marker-end="url(#ak)" stroke-dasharray="6 3"/><text x="1198" y="570" font-size="10.5" text-anchor="end" font-weight="400" fill="#6b6b6b">gradients to encoders, head, anchors  →</text></svg>