<svg xmlns="http://www.w3.org/2000/svg" viewBox="0 0 1240 700" width="1240" height="700" xml:space="preserve" role="img" aria-label="Clinical groups record different measurements, so no single input space exists; keeping only common columns, imputing, or training one model per group each fail; this paper gives each group its own encoder into one shared space with one predictor and protects the group furthest from its own achievable loss." font-family="Helvetica, Arial, sans-serif" font-size="13" fill="#141413"><defs><marker id="ak" viewBox="0 0 10 10" refX="9" refY="5" markerWidth="7" markerHeight="7" orient="auto-start-reverse"><path d="M0,0 L10,5 L0,10 z" fill="#141413"/></marker><marker id="ag" viewBox="0 0 10 10" refX="9" refY="5" markerWidth="7" markerHeight="7" orient="auto-start-reverse"><path d="M0,0 L10,5 L0,10 z" fill="#6b6b6b"/></marker><marker id="ar" viewBox="0 0 10 10" refX="9" refY="5" markerWidth="7" markerHeight="7" orient="auto-start-reverse"><path d="M0,0 L10,5 L0,10 z" fill="#b03a3a"/></marker><pattern id="hatch" width="6" height="6" patternUnits="userSpaceOnUse" patternTransform="rotate(45)"><rect width="6" height="6" fill="#ffffff"/><line x1="0" y1="0" x2="0" y2="6" stroke="#b03a3a" stroke-width="1.6"/></pattern></defs><rect width="1240" height="700" fill="#ffffff"/><rect x="14" y="14" width="596" height="330" rx="8" fill="#f7f6f2" stroke="#c9c8c3" stroke-width="1.1"/><text x="30" y="40" font-size="15" text-anchor="start" font-weight="700" fill="#141413">(a)  Patients arrive with different measurements</text><text x="256.0" y="80" font-size="9.5" text-anchor="middle" font-weight="400" fill="#6b6b6b">Questionnaire</text><text x="330.0" y="80" font-size="9.5" text-anchor="middle" font-weight="400" fill="#6b6b6b">Body measures</text><text x="404.0" y="80" font-size="9.5" text-anchor="middle" font-weight="400" fill="#6b6b6b">Blood pressure</text><text x="478.0" y="80" font-size="9.5" text-anchor="middle" font-weight="400" fill="#6b6b6b">Lab panel</text><text x="552.0" y="80" font-size="9.5" text-anchor="middle" font-weight="400" fill="#6b6b6b">Imaging</text><circle cx="40.0" cy="111.0" r="7" fill="#2a78d6" stroke="none" stroke-width="1" fill-opacity="1.0"/><text x="54" y="109" font-size="12.5" text-anchor="start" font-weight="600" fill="#141413">Community survey</text><circle cx="57.0" cy="121.0" r="2.6" fill="#2a78d6" stroke="none" stroke-width="1" fill-opacity="0.75"/><circle cx="66.0" cy="121.0" r="2.6" fill="#2a78d6" stroke="none" stroke-width="1" fill-opacity="0.75"/><circle cx="75.0" cy="121.0" r="2.6" fill="#2a78d6" stroke="none" stroke-width="1" fill-opacity="0.75"/><circle cx="84.0" cy="121.0" r="2.6" fill="#2a78d6" stroke="none" stroke-width="1" fill-opacity="0.75"/><circle cx="93.0" cy="121.0" r="2.6" fill="#2a78d6" stroke="none" stroke-width="1" fill-opacity="0.75"/><circle cx="102.0" cy="121.0" r="2.6" fill="#2a78d6" stroke="none" stroke-width="1" fill-opacity="0.75"/><circle cx="111.0" cy="121.0" r="2.6" fill="#2a78d6" stroke="none" stroke-width="1" fill-opacity="0.75"/><circle cx="120.0" cy="121.0" r="2.6" fill="#2a78d6" stroke="none" stroke-width="1" fill-opacity="0.75"/><circle cx="129.0" cy="121.0" r="2.6" fill="#2a78d6" stroke="none" stroke-width="1" fill-opacity="0.75"/><rect x="222" y="92" width="68" height="38" rx="4" fill="#d9e8fa" stroke="#2a78d6" stroke-width="1.1"/><rect x="296" y="92" width="68" height="38" rx="4" fill="#ffffff" stroke="#c9c8c3" stroke-width="1.1" stroke-dasharray="4 3"/><rect x="370" y="92" width="68" height="38" rx="4" fill="#ffffff" stroke="#c9c8c3" stroke-width="1.1" stroke-dasharray="4 3"/><rect x="444" y="92" width="68" height="38" rx="4" fill="#ffffff" stroke="#c9c8c3" stroke-width="1.1" stroke-dasharray="4 3"/><rect x="518" y="92" width="68" height="38" rx="4" fill="#ffffff" stroke="#c9c8c3" stroke-width="1.1" stroke-dasharray="4 3"/><circle cx="40.0" cy="157.0" r="7" fill="#eb6834" stroke="none" stroke-width="1" fill-opacity="1.0"/><text x="54" y="155" font-size="12.5" text-anchor="start" font-weight="600" fill="#141413">Clinic visit</text><circle cx="57.0" cy="167.0" r="2.6" fill="#eb6834" stroke="none" stroke-width="1" fill-opacity="0.75"/><circle cx="66.0" cy="167.0" r="2.6" fill="#eb6834" stroke="none" stroke-width="1" fill-opacity="0.75"/><circle cx="75.0" cy="167.0" r="2.6" fill="#eb6834" stroke="none" stroke-width="1" fill-opacity="0.75"/><circle cx="84.0" cy="167.0" r="2.6" fill="#eb6834" stroke="none" stroke-width="1" fill-opacity="0.75"/><circle cx="93.0" cy="167.0" r="2.6" fill="#eb6834" stroke="none" stroke-width="1" fill-opacity="0.75"/><circle cx="102.0" cy="167.0" r="2.6" fill="#eb6834" stroke="none" stroke-width="1" fill-opacity="0.75"/><rect x="222" y="138" width="68" height="38" rx="4" fill="#fbe1d5" stroke="#eb6834" stroke-width="1.1"/><rect x="296" y="138" width="68" height="38" rx="4" fill="#fbe1d5" stroke="#eb6834" stroke-width="1.1"/><rect x="370" y="138" width="68" height="38" rx="4" fill="#ffffff" stroke="#c9c8c3" stroke-width="1.1" stroke-dasharray="4 3"/><rect x="444" y="138" width="68" height="38" rx="4" fill="#ffffff" stroke="#c9c8c3" stroke-width="1.1" stroke-dasharray="4 3"/><rect x="518" y="138" width="68" height="38" rx="4" fill="#ffffff" stroke="#c9c8c3" stroke-width="1.1" stroke-dasharray="4 3"/><circle cx="40.0" cy="203.0" r="7" fill="#1baf7a" stroke="none" stroke-width="1" fill-opacity="1.0"/><text x="54" y="201" font-size="12.5" text-anchor="start" font-weight="600" fill="#141413">Hospital work-up</text><circle cx="57.0" cy="213.0" r="2.6" fill="#1baf7a" stroke="none" stroke-width="1" fill-opacity="0.75"/><circle cx="66.0" cy="213.0" r="2.6" fill="#1baf7a" stroke="none" stroke-width="1" fill-opacity="0.75"/><circle cx="75.0" cy="213.0" r="2.6" fill="#1baf7a" stroke="none" stroke-width="1" fill-opacity="0.75"/><circle cx="84.0" cy="213.0" r="2.6" fill="#1baf7a" stroke="none" stroke-width="1" fill-opacity="0.75"/><rect x="222" y="184" width="68" height="38" rx="4" fill="#d3f0e5" stroke="#1baf7a" stroke-width="1.1"/><rect x="296" y="184" width="68" height="38" rx="4" fill="#d3f0e5" stroke="#1baf7a" stroke-width="1.1"/><rect x="370" y="184" width="68" height="38" rx="4" fill="#d3f0e5" stroke="#1baf7a" stroke-width="1.1"/><rect x="444" y="184" width="68" height="38" rx="4" fill="#d3f0e5" stroke="#1baf7a" stroke-width="1.1"/><rect x="518" y="184" width="68" height="38" rx="4" fill="#ffffff" stroke="#c9c8c3" stroke-width="1.1" stroke-dasharray="4 3"/><circle cx="40.0" cy="249.0" r="7" fill="#eda100" stroke="none" stroke-width="1" fill-opacity="1.0"/><text x="54" y="247" font-size="12.5" text-anchor="start" font-weight="600" fill="#141413">Imaging centre</text><circle cx="57.0" cy="259.0" r="2.6" fill="#eda100" stroke="none" stroke-width="1" fill-opacity="0.75"/><circle cx="66.0" cy="259.0" r="2.6" fill="#eda100" stroke="none" stroke-width="1" fill-opacity="0.75"/><rect x="222" y="230" width="68" height="38" rx="4" fill="#ffffff" stroke="#c9c8c3" stroke-width="1.1" stroke-dasharray="4 3"/><rect x="296" y="230" width="68" height="38" rx="4" fill="#ffffff" stroke="#c9c8c3" stroke-width="1.1" stroke-dasharray="4 3"/><rect x="370" y="230" width="68" height="38" rx="4" fill="#ffffff" stroke="#c9c8c3" stroke-width="1.1" stroke-dasharray="4 3"/><rect x="444" y="230" width="68" height="38" rx="4" fill="#ffffff" stroke="#c9c8c3" stroke-width="1.1" stroke-dasharray="4 3"/><rect x="518" y="230" width="68" height="38" rx="4" fill="#fbedc8" stroke="#eda100" stroke-width="1.1"/><path d="M594,111 h10 v138 h-10" fill="none" stroke="#b03a3a" stroke-width="1.4"/><text x="592" y="288" font-size="11" text-anchor="end" font-weight="600" fill="#b03a3a">no test in common</text><rect x="30" y="306" width="22" height="14" rx="3" fill="#d9e8fa" stroke="#2a78d6" stroke-width="1.1"/><text x="58" y="317" font-size="11" text-anchor="start" font-weight="400" fill="#6b6b6b">measured</text><rect x="130" y="306" width="22" height="14" rx="3" fill="#ffffff" stroke="#c9c8c3" stroke-width="1.1" stroke-dasharray="4 3"/><text x="158" y="317" font-size="11" text-anchor="start" font-weight="400" fill="#6b6b6b">never ordered</text><circle cx="262.0" cy="313.0" r="2.6" fill="#2a78d6" stroke="none" stroke-width="1" fill-opacity="1.0"/><circle cx="271.0" cy="313.0" r="2.6" fill="#2a78d6" stroke="none" stroke-width="1" fill-opacity="1.0"/><text x="280" y="317" font-size="11" text-anchor="start" font-weight="400" fill="#6b6b6b">patients in the group</text><rect x="626" y="14" width="600" height="330" rx="8" fill="#f7f6f2" stroke="#c9c8c3" stroke-width="1.1"/><text x="642" y="40" font-size="15" text-anchor="start" font-weight="700" fill="#141413">(b)  One common model needs one input space</text><rect x="642" y="58" width="182" height="272" rx="6" fill="#ffffff" stroke="#c9c8c3" stroke-width="1.1"/><text x="654" y="82" font-size="12.5" text-anchor="start" font-weight="700" fill="#141413">Keep shared columns</text><circle cx="806.0" cy="77.0" r="9" fill="#ffffff" stroke="#b03a3a" stroke-width="1.4" fill-opacity="1.0"/><line x1="802" y1="73" x2="810" y2="81" stroke="#b03a3a" stroke-width="1.8"/><line x1="802" y1="81" x2="810" y2="73" stroke="#b03a3a" stroke-width="1.8"/><rect x="656" y="100" width="28" height="21" rx="2" fill="#ecebe6" stroke="#c9c8c3" stroke-width="0.9"/><rect x="687" y="100" width="28" height="21" rx="2" fill="#ffffff" stroke="#c9c8c3" stroke-width="0.9" stroke-dasharray="3 2"/><rect x="718" y="100" width="28" height="21" rx="2" fill="#ffffff" stroke="#c9c8c3" stroke-width="0.9" stroke-dasharray="3 2"/><rect x="749" y="100" width="28" height="21" rx="2" fill="#ffffff" stroke="#c9c8c3" stroke-width="0.9" stroke-dasharray="3 2"/><rect x="780" y="100" width="28" height="21" rx="2" fill="#ffffff" stroke="#c9c8c3" stroke-width="0.9" stroke-dasharray="3 2"/><rect x="656" y="124" width="28" height="21" rx="2" fill="#ecebe6" stroke="#c9c8c3" stroke-width="0.9"/><rect x="687" y="124" width="28" height="21" rx="2" fill="#ecebe6" stroke="#c9c8c3" stroke-width="0.9"/><rect x="718" y="124" width="28" height="21" rx="2" fill="#ffffff" stroke="#c9c8c3" stroke-width="0.9" stroke-dasharray="3 2"/><rect x="749" y="124" width="28" height="21" rx="2" fill="#ffffff" stroke="#c9c8c3" stroke-width="0.9" stroke-dasharray="3 2"/><rect x="780" y="124" width="28" height="21" rx="2" fill="#ffffff" stroke="#c9c8c3" stroke-width="0.9" stroke-dasharray="3 2"/><rect x="656" y="148" width="28" height="21" rx="2" fill="#ecebe6" stroke="#c9c8c3" stroke-width="0.9"/><rect x="687" y="148" width="28" height="21" rx="2" fill="#ecebe6" stroke="#c9c8c3" stroke-width="0.9"/><rect x="718" y="148" width="28" height="21" rx="2" fill="#ecebe6" stroke="#c9c8c3" stroke-width="0.9"/><rect x="749" y="148" width="28" height="21" rx="2" fill="#ecebe6" stroke="#c9c8c3" stroke-width="0.9"/><rect x="780" y="148" width="28" height="21" rx="2" fill="#ffffff" stroke="#c9c8c3" stroke-width="0.9" stroke-dasharray="3 2"/><rect x="656" y="172" width="28" height="21" rx="2" fill="#ffffff" stroke="#c9c8c3" stroke-width="0.9" stroke-dasharray="3 2"/><rect x="687" y="172" width="28" height="21" rx="2" fill="#ffffff" stroke="#c9c8c3" stroke-width="0.9" stroke-dasharray="3 2"/><rect x="718" y="172" width="28" height="21" rx="2" fill="#ffffff" stroke="#c9c8c3" stroke-width="0.9" stroke-dasharray="3 2"/><rect x="749" y="172" width="28" height="21" rx="2" fill="#ffffff" stroke="#c9c8c3" stroke-width="0.9" stroke-dasharray="3 2"/><rect x="780" y="172" width="28" height="21" rx="2" fill="#ecebe6" stroke="#c9c8c3" stroke-width="0.9"/><line x1="670" y1="96" x2="670" y2="198" stroke="#b03a3a" stroke-width="1.3"/><line x1="701" y1="96" x2="701" y2="198" stroke="#b03a3a" stroke-width="1.3"/><line x1="732" y1="96" x2="732" y2="198" stroke="#b03a3a" stroke-width="1.3"/><line x1="763" y1="96" x2="763" y2="198" stroke="#b03a3a" stroke-width="1.3"/><line x1="794" y1="96" x2="794" y2="198" stroke="#b03a3a" stroke-width="1.3"/><line x1="733" y1="204" x2="733" y2="226" stroke="#6b6b6b" stroke-width="1.2" marker-end="url(#ag)"/><rect x="692" y="230" width="82" height="30" rx="4" fill="#ffffff" stroke="#b03a3a" stroke-width="1.1" stroke-dasharray="4 3"/><text x="733" y="250" font-size="16" text-anchor="middle" font-weight="700" fill="#b03a3a">∅</text><text x="733" y="284" font-size="10.5" text-anchor="middle" font-weight="400" fill="#6b6b6b">no column is shared by all;</text><text x="733" y="299" font-size="10.5" text-anchor="middle" font-weight="400" fill="#6b6b6b">labs and imaging discarded</text><rect x="836" y="58" width="182" height="272" rx="6" fill="#ffffff" stroke="#c9c8c3" stroke-width="1.1"/><text x="848" y="82" font-size="12.5" text-anchor="start" font-weight="700" fill="#141413">Impute the rest</text><circle cx="1000.0" cy="77.0" r="9" fill="#ffffff" stroke="#b03a3a" stroke-width="1.4" fill-opacity="1.0"/><line x1="996" y1="73" x2="1004" y2="81" stroke="#b03a3a" stroke-width="1.8"/><line x1="996" y1="81" x2="1004" y2="73" stroke="#b03a3a" stroke-width="1.8"/><rect x="850" y="100" width="28" height="21" rx="2" fill="#d9e8fa" stroke="#2a78d6" stroke-width="0.9"/><rect x="881" y="100" width="28" height="21" rx="2" fill="url(#hatch)" stroke="#b03a3a" stroke-width="0.9"/><rect x="912" y="100" width="28" height="21" rx="2" fill="url(#hatch)" stroke="#b03a3a" stroke-width="0.9"/><rect x="943" y="100" width="28" height="21" rx="2" fill="url(#hatch)" stroke="#b03a3a" stroke-width="0.9"/><rect x="974" y="100" width="28" height="21" rx="2" fill="url(#hatch)" stroke="#b03a3a" stroke-width="0.9"/><rect x="850" y="124" width="28" height="21" rx="2" fill="#fbe1d5" stroke="#eb6834" stroke-width="0.9"/><rect x="881" y="124" width="28" height="21" rx="2" fill="#fbe1d5" stroke="#eb6834" stroke-width="0.9"/><rect x="912" y="124" width="28" height="21" rx="2" fill="url(#hatch)" stroke="#b03a3a" stroke-width="0.9"/><rect x="943" y="124" width="28" height="21" rx="2" fill="url(#hatch)" stroke="#b03a3a" stroke-width="0.9"/><rect x="974" y="124" width="28" height="21" rx="2" fill="url(#hatch)" stroke="#b03a3a" stroke-width="0.9"/><rect x="850" y="148" width="28" height="21" rx="2" fill="#d3f0e5" stroke="#1baf7a" stroke-width="0.9"/><rect x="881" y="148" width="28" height="21" rx="2" fill="#d3f0e5" stroke="#1baf7a" stroke-width="0.9"/><rect x="912" y="148" width="28" height="21" rx="2" fill="#d3f0e5" stroke="#1baf7a" stroke-width="0.9"/><rect x="943" y="148" width="28" height="21" rx="2" fill="#d3f0e5" stroke="#1baf7a" stroke-width="0.9"/><rect x="974" y="148" width="28" height="21" rx="2" fill="url(#hatch)" stroke="#b03a3a" stroke-width="0.9"/><rect x="850" y="172" width="28" height="21" rx="2" fill="url(#hatch)" stroke="#b03a3a" stroke-width="0.9"/><rect x="881" y="172" width="28" height="21" rx="2" fill="url(#hatch)" stroke="#b03a3a" stroke-width="0.9"/><rect x="912" y="172" width="28" height="21" rx="2" fill="url(#hatch)" stroke="#b03a3a" stroke-width="0.9"/><rect x="943" y="172" width="28" height="21" rx="2" fill="url(#hatch)" stroke="#b03a3a" stroke-width="0.9"/><rect x="974" y="172" width="28" height="21" rx="2" fill="#fbedc8" stroke="#eda100" stroke-width="0.9"/><line x1="927" y1="204" x2="927" y2="226" stroke="#6b6b6b" stroke-width="1.2" marker-end="url(#ag)"/><rect x="876" y="230" width="102" height="30" rx="4" fill="#ecebe6" stroke="#141413" stroke-width="1.1"/><text x="927" y="250" font-size="11.5" text-anchor="middle" font-weight="400" fill="#141413">one model</text><rect x="850" y="274" width="16" height="11" rx="2" fill="url(#hatch)" stroke="#b03a3a" stroke-width="0.9"/><text x="872" y="284" font-size="10.5" text-anchor="start" font-weight="400" fill="#6b6b6b">invented values: 12 of 20</text><text x="872" y="299" font-size="10.5" text-anchor="start" font-weight="400" fill="#6b6b6b">blocks were never measured</text><rect x="1030" y="58" width="182" height="272" rx="6" fill="#ffffff" stroke="#c9c8c3" stroke-width="1.1"/><text x="1042" y="82" font-size="12.5" text-anchor="start" font-weight="700" fill="#141413">One model per group</text><circle cx="1194.0" cy="77.0" r="9" fill="#ffffff" stroke="#b03a3a" stroke-width="1.4" fill-opacity="1.0"/><line x1="1190" y1="73" x2="1198" y2="81" stroke="#b03a3a" stroke-width="1.8"/><line x1="1190" y1="81" x2="1198" y2="73" stroke="#b03a3a" stroke-width="1.8"/><circle cx="1048.0" cy="109.0" r="2.4" fill="#2a78d6" stroke="none" stroke-width="1" fill-opacity="0.8"/><circle cx="1055.0" cy="109.0" r="2.4" fill="#2a78d6" stroke="none" stroke-width="1" fill-opacity="0.8"/><circle cx="1062.0" cy="109.0" r="2.4" fill="#2a78d6" stroke="none" stroke-width="1" fill-opacity="0.8"/><circle cx="1069.0" cy="109.0" r="2.4" fill="#2a78d6" stroke="none" stroke-width="1" fill-opacity="0.8"/><circle cx="1076.0" cy="109.0" r="2.4" fill="#2a78d6" stroke="none" stroke-width="1" fill-opacity="0.8"/><circle cx="1083.0" cy="109.0" r="2.4" fill="#2a78d6" stroke="none" stroke-width="1" fill-opacity="0.8"/><circle cx="1090.0" cy="109.0" r="2.4" fill="#2a78d6" stroke="none" stroke-width="1" fill-opacity="0.8"/><circle cx="1097.0" cy="109.0" r="2.4" fill="#2a78d6" stroke="none" stroke-width="1" fill-opacity="0.8"/><circle cx="1104.0" cy="109.0" r="2.4" fill="#2a78d6" stroke="none" stroke-width="1" fill-opacity="0.8"/><line x1="1120" y1="109" x2="1142" y2="109" stroke="#6b6b6b" stroke-width="1.2" marker-end="url(#ag)"/><rect x="1146" y="100" width="52" height="18" rx="3" fill="#d9e8fa" stroke="#2a78d6" stroke-width="1.1"/><text x="1172" y="113" font-size="10" text-anchor="middle" font-weight="400" fill="#141413">model 1</text><circle cx="1048.0" cy="135.0" r="2.4" fill="#eb6834" stroke="none" stroke-width="1" fill-opacity="0.8"/><circle cx="1055.0" cy="135.0" r="2.4" fill="#eb6834" stroke="none" stroke-width="1" fill-opacity="0.8"/><circle cx="1062.0" cy="135.0" r="2.4" fill="#eb6834" stroke="none" stroke-width="1" fill-opacity="0.8"/><circle cx="1069.0" cy="135.0" r="2.4" fill="#eb6834" stroke="none" stroke-width="1" fill-opacity="0.8"/><circle cx="1076.0" cy="135.0" r="2.4" fill="#eb6834" stroke="none" stroke-width="1" fill-opacity="0.8"/><circle cx="1083.0" cy="135.0" r="2.4" fill="#eb6834" stroke="none" stroke-width="1" fill-opacity="0.8"/><line x1="1120" y1="135" x2="1142" y2="135" stroke="#6b6b6b" stroke-width="1.2" marker-end="url(#ag)"/><rect x="1146" y="126" width="52" height="18" rx="3" fill="#fbe1d5" stroke="#eb6834" stroke-width="1.1"/><text x="1172" y="139" font-size="10" text-anchor="middle" font-weight="400" fill="#141413">model 2</text><circle cx="1048.0" cy="161.0" r="2.4" fill="#1baf7a" stroke="none" stroke-width="1" fill-opacity="0.8"/><circle cx="1055.0" cy="161.0" r="2.4" fill="#1baf7a" stroke="none" stroke-width="1" fill-opacity="0.8"/><circle cx="1062.0" cy="161.0" r="2.4" fill="#1baf7a" stroke="none" stroke-width="1" fill-opacity="0.8"/><circle cx="1069.0" cy="161.0" r="2.4" fill="#1baf7a" stroke="none" stroke-width="1" fill-opacity="0.8"/><line x1="1120" y1="161" x2="1142" y2="161" stroke="#6b6b6b" stroke-width="1.2" marker-end="url(#ag)"/><rect x="1146" y="152" width="52" height="18" rx="3" fill="#d3f0e5" stroke="#1baf7a" stroke-width="1.1"/><text x="1172" y="165" font-size="10" text-anchor="middle" font-weight="400" fill="#141413">model 3</text><circle cx="1048.0" cy="187.0" r="2.4" fill="#eda100" stroke="none" stroke-width="1" fill-opacity="0.8"/><circle cx="1055.0" cy="187.0" r="2.4" fill="#eda100" stroke="none" stroke-width="1" fill-opacity="0.8"/><line x1="1120" y1="187" x2="1142" y2="187" stroke="#6b6b6b" stroke-width="1.2" marker-end="url(#ag)"/><rect x="1146" y="178" width="52" height="18" rx="3" fill="#fbedc8" stroke="#eda100" stroke-width="1.1"/><text x="1172" y="191" font-size="10" text-anchor="middle" font-weight="400" fill="#141413">model 4</text><path d="M1064,202 v14" fill="none" stroke="#b03a3a" stroke-width="1.3"/><text x="1044" y="232" font-size="11" text-anchor="start" font-weight="600" fill="#b03a3a">few patients</text><text x="1121" y="284" font-size="10.5" text-anchor="middle" font-weight="400" fill="#6b6b6b">small groups cannot support</text><text x="1121" y="299" font-size="10.5" text-anchor="middle" font-weight="400" fill="#6b6b6b">a model; nothing is shared</text><rect x="14" y="360" width="800" height="326" rx="8" fill="#f7f6f2" stroke="#c9c8c3" stroke-width="1.1"/><text x="30" y="386" font-size="15" text-anchor="start" font-weight="700" fill="#141413">(c)  This paper: separate inputs, one shared space, one predictor</text><circle cx="792.0" cy="381.0" r="9" fill="#ffffff" stroke="#1a7f4b" stroke-width="1.4" fill-opacity="1.0"/><path d="M788,381 L791,385 L797,377" fill="none" stroke="#1a7f4b" stroke-width="1.9"/><text x="30" y="418" font-size="11" text-anchor="start" font-weight="400" fill="#6b6b6b">Community survey</text><rect x="30" y="424" width="24" height="24" rx="3" fill="#d9e8fa" stroke="#2a78d6" stroke-width="1.1"/><line x1="148" y1="436" x2="196" y2="436" stroke="#6b6b6b" stroke-width="1.2" marker-end="url(#ag)"/><polygon points="200,423.5 270,426 270,446 200,448.5" fill="#d9e8fa" stroke="#2a78d6" stroke-width="1.1"/><text x="236" y="440" font-size="10" text-anchor="middle" font-weight="400" fill="#141413">enc. 1</text><path d="M272,436 C320,436 320,490 362,490" fill="none" stroke="#6b6b6b" stroke-width="1.2" marker-end="url(#ag)"/><text x="30" y="478" font-size="11" text-anchor="start" font-weight="400" fill="#6b6b6b">Clinic visit</text><rect x="30" y="484" width="24" height="24" rx="3" fill="#fbe1d5" stroke="#eb6834" stroke-width="1.1"/><rect x="58" y="484" width="24" height="24" rx="3" fill="#fbe1d5" stroke="#eb6834" stroke-width="1.1"/><line x1="148" y1="496" x2="196" y2="496" stroke="#6b6b6b" stroke-width="1.2" marker-end="url(#ag)"/><polygon points="200,480.0 270,486 270,506 200,512.0" fill="#fbe1d5" stroke="#eb6834" stroke-width="1.1"/><text x="236" y="500" font-size="10" text-anchor="middle" font-weight="400" fill="#141413">enc. 2</text><path d="M272,496 C320,496 320,506 362,506" fill="none" stroke="#6b6b6b" stroke-width="1.2" marker-end="url(#ag)"/><text x="30" y="538" font-size="11" text-anchor="start" font-weight="400" fill="#6b6b6b">Hospital work-up</text><rect x="30" y="544" width="24" height="24" rx="3" fill="#d3f0e5" stroke="#1baf7a" stroke-width="1.1"/><rect x="58" y="544" width="24" height="24" rx="3" fill="#d3f0e5" stroke="#1baf7a" stroke-width="1.1"/><rect x="86" y="544" width="24" height="24" rx="3" fill="#d3f0e5" stroke="#1baf7a" stroke-width="1.1"/><rect x="114" y="544" width="24" height="24" rx="3" fill="#d3f0e5" stroke="#1baf7a" stroke-width="1.1"/><line x1="148" y1="556" x2="196" y2="556" stroke="#6b6b6b" stroke-width="1.2" marker-end="url(#ag)"/><polygon points="200,533.0 270,546 270,566 200,579.0" fill="#d3f0e5" stroke="#1baf7a" stroke-width="1.1"/><text x="236" y="560" font-size="10" text-anchor="middle" font-weight="400" fill="#141413">enc. 3</text><path d="M272,556 C320,556 320,522 362,522" fill="none" stroke="#6b6b6b" stroke-width="1.2" marker-end="url(#ag)"/><text x="30" y="598" font-size="11" text-anchor="start" font-weight="400" fill="#6b6b6b">Imaging centre</text><rect x="30" y="604" width="24" height="24" rx="3" fill="#fbedc8" stroke="#eda100" stroke-width="1.1"/><line x1="148" y1="616" x2="196" y2="616" stroke="#6b6b6b" stroke-width="1.2" marker-end="url(#ag)"/><polygon points="200,603.5 270,606 270,626 200,628.5" fill="#fbedc8" stroke="#eda100" stroke-width="1.1"/><text x="236" y="620" font-size="10" text-anchor="middle" font-weight="400" fill="#141413">enc. 4</text><path d="M272,616 C320,616 320,538 362,538" fill="none" stroke="#6b6b6b" stroke-width="1.2" marker-end="url(#ag)"/><text x="235" y="660" font-size="11.5" text-anchor="middle" font-weight="600" fill="#141413">one encoder per group</text><ellipse cx="470" cy="514" rx="108" ry="104" fill="#ffffff" fill-opacity="1.0" stroke="#141413" stroke-width="1.2"/><ellipse cx="430" cy="490" rx="46" ry="38" fill="#9a9a94" fill-opacity="0.13" stroke="#9a9a94" stroke-width="1.2" stroke-dasharray="5 3"/><circle cx="431.6" cy="507.5" r="3" fill="#2a78d6" stroke="none" stroke-width="1" fill-opacity="0.85"/><circle cx="414.2" cy="503.9" r="3" fill="#2a78d6" stroke="none" stroke-width="1" fill-opacity="0.85"/><circle cx="425.6" cy="486.3" r="3" fill="#2a78d6" stroke="none" stroke-width="1" fill-opacity="0.85"/><circle cx="462.3" cy="492.2" r="3" fill="#2a78d6" stroke="none" stroke-width="1" fill-opacity="0.85"/><circle cx="429.3" cy="500.2" r="3" fill="#2a78d6" stroke="none" stroke-width="1" fill-opacity="0.85"/><circle cx="449.2" cy="489.6" r="3" fill="#2a78d6" stroke="none" stroke-width="1" fill-opacity="0.85"/><circle cx="440.0" cy="476.4" r="3" fill="#2a78d6" stroke="none" stroke-width="1" fill-opacity="0.85"/><circle cx="423.8" cy="483.9" r="3" fill="#eb6834" stroke="none" stroke-width="1" fill-opacity="0.85"/><circle cx="407.4" cy="468.9" r="3" fill="#eb6834" stroke="none" stroke-width="1" fill-opacity="0.85"/><circle cx="402.3" cy="486.7" r="3" fill="#eb6834" stroke="none" stroke-width="1" fill-opacity="0.85"/><circle cx="427.1" cy="485.5" r="3" fill="#eb6834" stroke="none" stroke-width="1" fill-opacity="0.85"/><circle cx="431.2" cy="471.3" r="3" fill="#eb6834" stroke="none" stroke-width="1" fill-opacity="0.85"/><circle cx="428.6" cy="493.3" r="3" fill="#eb6834" stroke="none" stroke-width="1" fill-opacity="0.85"/><circle cx="442.8" cy="478.2" r="3" fill="#eb6834" stroke="none" stroke-width="1" fill-opacity="0.85"/><circle cx="423.2" cy="461.8" r="3" fill="#1baf7a" stroke="none" stroke-width="1" fill-opacity="0.85"/><circle cx="421.4" cy="459.2" r="3" fill="#1baf7a" stroke="none" stroke-width="1" fill-opacity="0.85"/><circle cx="405.9" cy="505.4" r="3" fill="#1baf7a" stroke="none" stroke-width="1" fill-opacity="0.85"/><circle cx="392.6" cy="501.2" r="3" fill="#1baf7a" stroke="none" stroke-width="1" fill-opacity="0.85"/><circle cx="435.6" cy="485.6" r="3" fill="#1baf7a" stroke="none" stroke-width="1" fill-opacity="0.85"/><circle cx="437.8" cy="497.4" r="3" fill="#1baf7a" stroke="none" stroke-width="1" fill-opacity="0.85"/><circle cx="447.8" cy="486.8" r="3" fill="#1baf7a" stroke="none" stroke-width="1" fill-opacity="0.85"/><circle cx="419.9" cy="481.5" r="3" fill="#eda100" stroke="none" stroke-width="1" fill-opacity="0.85"/><circle cx="413.2" cy="489.4" r="3" fill="#eda100" stroke="none" stroke-width="1" fill-opacity="0.85"/><circle cx="416.6" cy="505.0" r="3" fill="#eda100" stroke="none" stroke-width="1" fill-opacity="0.85"/><circle cx="398.2" cy="474.7" r="3" fill="#eda100" stroke="none" stroke-width="1" fill-opacity="0.85"/><circle cx="413.8" cy="460.7" r="3" fill="#eda100" stroke="none" stroke-width="1" fill-opacity="0.85"/><circle cx="462.3" cy="456.3" r="3" fill="#eda100" stroke="none" stroke-width="1" fill-opacity="0.85"/><circle cx="425.2" cy="482.6" r="3" fill="#eda100" stroke="none" stroke-width="1" fill-opacity="0.85"/><polygon points="430.0,480.0 432.5,486.6 439.5,486.9 434.0,491.3 435.9,498.1 430.0,494.2 424.1,498.1 426.0,491.3 420.5,486.9 427.5,486.6" fill="#9a9a94" stroke="#141413" stroke-width="1.2"/><ellipse cx="512" cy="540" rx="46" ry="38" fill="#e87ba4" fill-opacity="0.13" stroke="#e87ba4" stroke-width="1.2" stroke-dasharray="5 3"/><circle cx="540.2" cy="512.2" r="3" fill="#2a78d6" stroke="none" stroke-width="1" fill-opacity="0.85"/><circle cx="530.2" cy="529.8" r="3" fill="#2a78d6" stroke="none" stroke-width="1" fill-opacity="0.85"/><circle cx="509.4" cy="530.6" r="3" fill="#2a78d6" stroke="none" stroke-width="1" fill-opacity="0.85"/><circle cx="522.9" cy="524.1" r="3" fill="#2a78d6" stroke="none" stroke-width="1" fill-opacity="0.85"/><circle cx="510.7" cy="544.9" r="3" fill="#2a78d6" stroke="none" stroke-width="1" fill-opacity="0.85"/><circle cx="543.3" cy="506.3" r="3" fill="#2a78d6" stroke="none" stroke-width="1" fill-opacity="0.85"/><circle cx="537.9" cy="553.3" r="3" fill="#2a78d6" stroke="none" stroke-width="1" fill-opacity="0.85"/><circle cx="503.8" cy="544.3" r="3" fill="#eb6834" stroke="none" stroke-width="1" fill-opacity="0.85"/><circle cx="504.1" cy="563.1" r="3" fill="#eb6834" stroke="none" stroke-width="1" fill-opacity="0.85"/><circle cx="515.6" cy="537.0" r="3" fill="#eb6834" stroke="none" stroke-width="1" fill-opacity="0.85"/><circle cx="508.1" cy="537.2" r="3" fill="#eb6834" stroke="none" stroke-width="1" fill-opacity="0.85"/><circle cx="509.0" cy="527.7" r="3" fill="#eb6834" stroke="none" stroke-width="1" fill-opacity="0.85"/><circle cx="547.0" cy="513.2" r="3" fill="#eb6834" stroke="none" stroke-width="1" fill-opacity="0.85"/><circle cx="450.7" cy="538.3" r="3" fill="#eb6834" stroke="none" stroke-width="1" fill-opacity="0.85"/><circle cx="509.5" cy="545.2" r="3" fill="#1baf7a" stroke="none" stroke-width="1" fill-opacity="0.85"/><circle cx="508.5" cy="537.9" r="3" fill="#1baf7a" stroke="none" stroke-width="1" fill-opacity="0.85"/><circle cx="517.6" cy="553.6" r="3" fill="#1baf7a" stroke="none" stroke-width="1" fill-opacity="0.85"/><circle cx="504.4" cy="534.8" r="3" fill="#1baf7a" stroke="none" stroke-width="1" fill-opacity="0.85"/><circle cx="545.0" cy="547.4" r="3" fill="#1baf7a" stroke="none" stroke-width="1" fill-opacity="0.85"/><circle cx="495.2" cy="572.5" r="3" fill="#1baf7a" stroke="none" stroke-width="1" fill-opacity="0.85"/><circle cx="525.2" cy="531.8" r="3" fill="#1baf7a" stroke="none" stroke-width="1" fill-opacity="0.85"/><circle cx="492.0" cy="544.2" r="3" fill="#eda100" stroke="none" stroke-width="1" fill-opacity="0.85"/><circle cx="497.9" cy="525.2" r="3" fill="#eda100" stroke="none" stroke-width="1" fill-opacity="0.85"/><circle cx="490.0" cy="532.9" r="3" fill="#eda100" stroke="none" stroke-width="1" fill-opacity="0.85"/><circle cx="530.8" cy="533.9" r="3" fill="#eda100" stroke="none" stroke-width="1" fill-opacity="0.85"/><circle cx="487.4" cy="549.4" r="3" fill="#eda100" stroke="none" stroke-width="1" fill-opacity="0.85"/><circle cx="513.1" cy="551.8" r="3" fill="#eda100" stroke="none" stroke-width="1" fill-opacity="0.85"/><circle cx="532.4" cy="537.6" r="3" fill="#eda100" stroke="none" stroke-width="1" fill-opacity="0.85"/><polygon points="512.0,530.0 514.5,536.6 521.5,536.9 516.0,541.3 517.9,548.1 512.0,544.2 506.1,548.1 508.0,541.3 502.5,536.9 509.5,536.6" fill="#e87ba4" stroke="#141413" stroke-width="1.2"/><text x="470" y="660" font-size="11.5" text-anchor="middle" font-weight="600" fill="#141413">shared space, one target per outcome</text><line x1="580" y1="514" x2="622" y2="514" stroke="#141413" stroke-width="1.2" marker-end="url(#ak)"/><rect x="626" y="490" width="66" height="48" rx="5" fill="#ecebe6" stroke="#141413" stroke-width="1.1"/><text x="659" y="511" font-size="11.5" text-anchor="middle" font-weight="400" fill="#141413">one</text><text x="659" y="526" font-size="11.5" text-anchor="middle" font-weight="400" fill="#141413">predictor</text><line x1="694" y1="514" x2="730" y2="514" stroke="#141413" stroke-width="1.2" marker-end="url(#ak)"/><text x="736" y="510" font-size="11" text-anchor="start" font-weight="400" fill="#6b6b6b">risk for</text><text x="736" y="524" font-size="11" text-anchor="start" font-weight="400" fill="#6b6b6b">every patient</text><polygon points="610.0,589.0 611.7,593.6 616.7,593.8 612.8,596.9 614.1,601.7 610.0,598.9 605.9,601.7 607.2,596.9 603.3,593.8 608.3,593.6" fill="#9a9a94" stroke="#141413" stroke-width="1.2"/><text x="622" y="600" font-size="10.5" text-anchor="start" font-weight="400" fill="#6b6b6b">class anchor (learnt)</text><circle cx="606.0" cy="618.0" r="3" fill="#2a78d6" stroke="none" stroke-width="1" fill-opacity="1.0"/><circle cx="614.0" cy="618.0" r="3" fill="#eb6834" stroke="none" stroke-width="1" fill-opacity="1.0"/><circle cx="622.0" cy="618.0" r="3" fill="#1baf7a" stroke="none" stroke-width="1" fill-opacity="1.0"/><circle cx="630.0" cy="618.0" r="3" fill="#eda100" stroke="none" stroke-width="1" fill-opacity="1.0"/><text x="642" y="622" font-size="10.5" text-anchor="start" font-weight="400" fill="#6b6b6b">patients, by group</text><rect x="828" y="360" width="398" height="326" rx="8" fill="#f7f6f2" stroke="#c9c8c3" stroke-width="1.1"/><text x="844" y="386" font-size="15" text-anchor="start" font-weight="700" fill="#141413">(d)  Which group needs the help?</text><line x1="876" y1="636" x2="876" y2="422" stroke="#6b6b6b" stroke-width="1.2" marker-end="url(#ag)"/><text x="876" y="412" font-size="10.5" text-anchor="middle" font-weight="400" fill="#6b6b6b">loss</text><line x1="872" y1="636" x2="876" y2="636" stroke="#6b6b6b" stroke-width="1.2"/><text x="868" y="640" font-size="10" text-anchor="end" font-weight="400" fill="#6b6b6b">0</text><line x1="872" y1="528.0" x2="876" y2="528.0" stroke="#6b6b6b" stroke-width="1.2"/><text x="868" y="532.0" font-size="10" text-anchor="end" font-weight="400" fill="#6b6b6b">0.5</text><line x1="872" y1="420.0" x2="876" y2="420.0" stroke="#6b6b6b" stroke-width="1.2"/><text x="868" y="424.0" font-size="10" text-anchor="end" font-weight="400" fill="#6b6b6b">1</text><line x1="876" y1="636" x2="1210" y2="636" stroke="#6b6b6b" stroke-width="1.2"/><rect x="912" y="441.6" width="64" height="194.4" rx="3" fill="#d9e8fa" stroke="#2a78d6" stroke-width="1.1"/><text x="944" y="433.6" font-size="11" text-anchor="middle" font-weight="600" fill="#141413">loss 0.90</text><line x1="900" y1="452.4" x2="988" y2="452.4" stroke="#141413" stroke-width="1.4" stroke-dasharray="5 3"/><text x="992" y="456.4" font-size="10.5" text-anchor="start" font-weight="400" fill="#6b6b6b">best 0.85</text><path d="M982,441.6 v10.80000000000001" fill="none" stroke="#b03a3a" stroke-width="3"/><text x="992" y="439.0" font-size="10.5" text-anchor="start" font-weight="600" fill="#b03a3a">gap 0.05</text><text x="944" y="652" font-size="11.5" text-anchor="middle" font-weight="600" fill="#141413">Group 1</text><rect x="1070" y="506.4" width="64" height="129.6" rx="3" fill="#fbe1d5" stroke="#eb6834" stroke-width="1.1"/><text x="1102" y="498.4" font-size="11" text-anchor="middle" font-weight="600" fill="#141413">loss 0.60</text><line x1="1058" y1="571.2" x2="1146" y2="571.2" stroke="#141413" stroke-width="1.4" stroke-dasharray="5 3"/><text x="1150" y="575.2" font-size="10.5" text-anchor="start" font-weight="400" fill="#6b6b6b">best 0.30</text><path d="M1140,506.4 v64.8" fill="none" stroke="#b03a3a" stroke-width="3"/><text x="1150" y="542.8" font-size="10.5" text-anchor="start" font-weight="600" fill="#b03a3a">gap 0.30</text><text x="1102" y="652" font-size="11.5" text-anchor="middle" font-weight="600" fill="#141413">Group 2</text><text x="944" y="672" font-size="11" text-anchor="middle" font-weight="400" fill="#6b6b6b">highest loss</text><text x="1102" y="672" font-size="11" text-anchor="middle" font-weight="600" fill="#b03a3a">furthest from its best</text></svg>